<svg width="20" height="20" viewBox="0 0 20 20" fill="none" xmlns="http://www.w3.org/2000/svg">
<path d="M10 0C7.34844 0 4.80312 1.05422 2.92969 2.92891C1.05432 4.80434 0.000519484 7.34778 0 10C0 12.6511 1.05469 15.1964 2.92969 17.0711C4.80312 18.9458 7.34844 20 10 20C12.6516 20 15.1969 18.9458 17.0703 17.0711C18.9453 15.1964 20 12.6511 20 10C20 7.34891 18.9453 4.80359 17.0703 2.92891C15.1969 1.05422 12.6516 0 10 0Z" fill="url(#paint0_linear_226_48)"/>
<path d="M4.52656 9.89438C7.44219 8.62438 9.38594 7.78703 10.3578 7.3825C13.1359 6.22734 13.7125 6.02672 14.0891 6.01992C14.1719 6.01859 14.3563 6.03906 14.4766 6.13633C14.5766 6.21836 14.6047 6.3293 14.6187 6.40719C14.6312 6.485 14.6484 6.66234 14.6344 6.80078C14.4844 8.38203 13.8328 12.2192 13.5016 13.9903C13.3625 14.7397 13.0859 14.9909 12.8188 15.0155C12.2375 15.0689 11.7969 14.6317 11.2344 14.2631C10.3547 13.6861 9.85781 13.327 9.00312 12.7641C8.01562 12.1134 8.65625 11.7558 9.21875 11.1714C9.36562 11.0184 11.925 8.69109 11.9734 8.48C11.9797 8.45359 11.9859 8.35516 11.9266 8.30328C11.8687 8.25125 11.7828 8.26906 11.7203 8.28313C11.6313 8.30313 10.2266 9.2325 7.50156 11.0711C7.10312 11.3452 6.74219 11.4788 6.41719 11.4717C6.06094 11.4641 5.37344 11.2698 4.8625 11.1039C4.2375 10.9003 3.73906 10.7927 3.78281 10.4469C3.80469 10.2669 4.05312 10.0827 4.52656 9.89438Z" fill="white"/>
<defs>
<linearGradient id="paint0_linear_226_48" x1="1000" y1="0" x2="1000" y2="2000" gradientUnits="userSpaceOnUse">
<stop stop-color="#2AABEE"/>
<stop offset="1" stop-color="#229ED9"/>
</linearGradient>
</defs>
</svg>
