<svg width="20" height="20" viewBox="0 0 20 20" fill="none" xmlns="http://www.w3.org/2000/svg">
<path d="M0.426797 9.91308C0.426328 11.599 0.868828 13.2453 1.71023 14.6963L0.346328 19.6539L5.44258 18.3236C6.85213 19.0875 8.43144 19.4878 10.0363 19.4879H10.0405C15.3386 19.4879 19.6513 15.196 19.6536 9.92063C19.6546 7.36435 18.6555 4.96059 16.8404 3.15213C15.0255 1.34382 12.6119 0.347428 10.0402 0.346261C4.74149 0.346261 0.428984 4.63797 0.426797 9.91308Z" fill="url(#paint0_linear_226_44)"/>
<path d="M0.0835938 9.90997C0.0830469 11.6566 0.541406 13.3617 1.41281 14.8646L0 20L5.27898 18.622C6.73352 19.4115 8.37117 19.8278 10.0376 19.8284H10.0419C15.53 19.8284 19.9977 15.3821 20 9.91791C20.0009 7.26977 18.9659 4.7796 17.0859 2.90635C15.2057 1.03334 12.7057 0.00108887 10.0419 0C4.55281 0 0.0857813 4.44571 0.0835938 9.90997ZM3.22742 14.6058L3.03031 14.2943C2.20172 12.9827 1.76437 11.467 1.765 9.9106C1.76672 5.36884 5.47953 1.67375 10.045 1.67375C12.2559 1.67468 14.3338 2.53271 15.8966 4.08949C17.4593 5.64642 18.3192 7.71605 18.3187 9.91728C18.3166 14.459 14.6037 18.1546 10.0419 18.1546H10.0386C8.5532 18.1538 7.09641 17.7567 5.82594 17.0062L5.52359 16.8277L2.39094 17.6454L3.22742 14.6058Z" fill="url(#paint1_linear_226_44)"/>
<path d="M7.55297 5.76697C7.36656 5.35453 7.17039 5.3462 6.99313 5.33897C6.84797 5.33275 6.68203 5.33321 6.51625 5.33321C6.35031 5.33321 6.0807 5.39536 5.85281 5.64308C5.62469 5.89103 4.98188 6.49022 4.98188 7.7089C4.98188 8.92766 5.87352 10.1054 5.99781 10.2709C6.12227 10.436 7.71914 13.0169 10.2482 14.0098C12.3501 14.8349 12.7778 14.6708 13.234 14.6295C13.6902 14.5882 14.7062 14.0304 14.9134 13.452C15.1209 12.8736 15.1209 12.3779 15.0587 12.2743C14.9965 12.1711 14.8305 12.1091 14.5817 11.9853C14.3328 11.8614 13.1095 11.2621 12.8815 11.1794C12.6534 11.0968 12.4875 11.0556 12.3216 11.3037C12.1556 11.5513 11.6791 12.1091 11.5339 12.2743C11.3888 12.4399 11.2436 12.4605 10.9948 12.3366C10.7459 12.2123 9.94453 11.9511 8.99383 11.1073C8.25414 10.4507 7.75477 9.63986 7.60961 9.39183C7.46445 9.14419 7.59406 9.00994 7.71883 8.88651C7.83063 8.77553 7.96773 8.59726 8.09227 8.45268C8.21633 8.30801 8.25773 8.2048 8.3407 8.0396C8.42375 7.87425 8.38219 7.72959 8.32008 7.60569C8.25773 7.48179 7.77422 6.25673 7.55297 5.76697Z" fill="white"/>
<defs>
<linearGradient id="paint0_linear_226_44" x1="1000" y1="2000" x2="1000" y2="0" gradientUnits="userSpaceOnUse">
<stop stop-color="#1FAF38"/>
<stop offset="1" stop-color="#60D669"/>
</linearGradient>
<linearGradient id="paint1_linear_226_44" x1="1000" y1="2000" x2="1000" y2="0" gradientUnits="userSpaceOnUse">
<stop stop-color="#F9F9F9"/>
<stop offset="1" stop-color="white"/>
</linearGradient>
</defs>
</svg>
