<?xml version="1.0" standalone="no"?>
<!DOCTYPE svg PUBLIC "-//W3C//DTD SVG 20010904//EN"
 "http://www.w3.org/TR/2001/REC-SVG-20010904/DTD/svg10.dtd">
<svg version="1.0" xmlns="http://www.w3.org/2000/svg"
 width="1024.000000pt" height="1024.000000pt" viewBox="0 0 1024.000000 1024.000000"
 preserveAspectRatio="xMidYMid meet">
<metadata>
Created by potrace 1.14, written by Peter Selinger 2001-2017
</metadata>
<g transform="translate(0.000000,1024.000000) scale(0.100000,-0.100000)"
fill="#000000" stroke="none">
<path d="M4969 9486 c-2 -2 -74 -6 -160 -9 -86 -3 -187 -13 -225 -22 -37 -9
-87 -18 -109 -21 -22 -3 -54 -7 -71 -9 -18 -2 -74 -15 -125 -29 -52 -14 -103
-27 -114 -29 -27 -5 -106 -26 -125 -34 -20 -8 -21 -9 -55 -17 -16 -4 -37 -11
-46 -16 -9 -5 -34 -12 -55 -16 -22 -3 -43 -10 -49 -14 -5 -4 -61 -26 -124 -49
-107 -38 -167 -74 -156 -92 3 -4 -4 -5 -14 -2 -10 3 -28 0 -40 -6 -12 -7 -21
-8 -21 -3 0 16 -50 0 -68 -22 -9 -11 -34 -30 -54 -40 -20 -11 -35 -22 -33 -26
2 -3 -13 -4 -34 -2 -45 5 -93 -35 -83 -70 4 -16 -9 -34 -59 -79 -68 -63 -70
-64 -138 -48 -80 18 -143 -23 -144 -93 -1 -57 7 -76 38 -88 40 -15 42 -38 6
-69 -17 -15 -31 -30 -31 -34 0 -4 -9 -17 -20 -29 -11 -12 -20 -28 -20 -35 0
-19 -33 -29 -81 -25 -38 4 -43 8 -61 48 -22 51 -35 49 -44 -6 -6 -35 -9 -39
-44 -45 -45 -8 -80 10 -80 40 0 11 -5 27 -10 35 -9 13 -11 13 -20 0 -5 -8 -10
-24 -10 -35 -1 -34 -13 -42 -63 -42 -50 -1 -79 -15 -57 -28 7 -4 35 -10 64
-14 45 -5 51 -9 54 -32 2 -15 -5 -32 -15 -42 -15 -13 -90 -28 -150 -30 -7 0
-13 -3 -13 -7 0 -3 -24 -18 -53 -32 -100 -51 -314 -281 -501 -538 -30 -41 -69
-91 -85 -110 -17 -19 -31 -41 -31 -48 0 -7 -7 -15 -15 -18 -8 -4 -15 -11 -15
-17 0 -5 -15 -28 -33 -51 -51 -64 -117 -163 -117 -175 0 -6 -4 -11 -10 -11 -5
0 -10 -7 -10 -15 0 -8 -4 -15 -9 -15 -5 0 -13 -13 -19 -28 -5 -16 -17 -36 -27
-45 -9 -9 -14 -17 -11 -17 3 0 -21 -51 -52 -112 -32 -62 -59 -117 -61 -123 -2
-5 -17 -39 -33 -75 -37 -78 -58 -137 -52 -143 2 -2 -2 -10 -11 -17 -8 -7 -15
-18 -15 -26 0 -7 -5 -25 -12 -41 -6 -15 -12 -30 -13 -33 -6 -24 -18 -59 -25
-75 -14 -30 -69 -198 -74 -226 -3 -13 -5 -24 -6 -24 -1 0 -3 -7 -5 -15 -19
-74 -23 -95 -19 -102 3 -4 1 -8 -4 -8 -8 0 -24 -65 -47 -195 -2 -11 -4 -20 -5
-20 -1 0 -3 -9 -4 -20 -5 -35 -19 -140 -21 -145 -11 -42 -15 -75 -17 -122 -2
-32 -5 -58 -8 -58 -3 0 -6 -33 -7 -72 -8 -235 -13 -311 -23 -323 -7 -8 -7 -15
-1 -19 6 -4 6 -18 1 -34 -4 -16 -4 -36 2 -45 5 -10 5 -17 1 -17 -7 0 -7 -125
0 -195 2 -16 0 -35 -5 -42 -5 -6 -5 -14 2 -18 5 -3 10 -11 10 -16 0 -6 -4 -8
-9 -5 -5 4 -7 -3 -4 -14 3 -11 9 -23 14 -25 4 -3 6 -12 2 -20 -3 -8 -1 -15 3
-15 5 0 9 -24 9 -52 0 -74 22 -265 33 -282 7 -12 9 -20 16 -86 6 -55 18 -96
39 -136 16 -32 17 -50 4 -71 -5 -8 -4 -13 2 -13 6 0 11 -6 11 -14 0 -8 7 -22
16 -30 8 -9 12 -16 8 -16 -3 0 -1 -6 5 -14 7 -8 13 -28 13 -45 1 -18 5 -28 11
-24 6 3 7 1 3 -5 -3 -6 1 -30 10 -54 9 -24 16 -51 15 -61 0 -9 3 -16 7 -13 4
2 8 -12 10 -32 1 -20 6 -38 10 -42 4 -3 9 -16 11 -30 1 -14 6 -27 10 -30 3 -3
7 -16 9 -30 4 -32 23 -73 40 -83 7 -5 10 -12 7 -18 -4 -5 -3 -9 2 -9 4 0 9
-14 9 -31 1 -26 57 -162 74 -179 3 -3 23 -41 44 -85 22 -44 59 -99 83 -123 24
-24 43 -47 43 -52 0 -13 76 -142 97 -165 11 -11 20 -24 21 -30 1 -5 27 -45 57
-88 30 -43 55 -80 55 -82 0 -11 73 -105 82 -105 5 0 7 -4 4 -8 -3 -5 6 -16 19
-26 14 -10 22 -23 19 -28 -3 -5 12 -25 34 -46 22 -20 58 -54 81 -75 23 -21 41
-44 41 -52 0 -7 11 -22 25 -33 14 -11 25 -25 25 -30 0 -6 9 -14 21 -17 11 -4
18 -9 16 -11 -6 -6 20 -37 102 -122 35 -37 60 -60 56 -52 -4 8 9 -2 29 -24 20
-21 36 -41 36 -43 0 -13 111 -113 125 -113 8 0 15 -7 15 -16 0 -8 4 -13 9 -9
5 3 12 -4 16 -15 6 -18 99 -70 125 -70 6 0 10 -7 10 -15 0 -8 5 -15 11 -15 5
0 7 -4 4 -10 -4 -6 1 -7 11 -3 11 4 15 2 11 -4 -4 -6 0 -14 9 -17 10 -4 13 -2
8 6 -5 7 0 9 13 6 11 -3 28 -1 37 4 12 7 18 5 22 -7 6 -13 8 -14 15 -3 7 10 9
10 9 -2 0 -8 10 -24 23 -35 12 -11 27 -28 32 -38 6 -10 13 -17 18 -15 4 2 14
-10 22 -26 18 -34 19 -39 3 -30 -7 5 -8 3 -4 -5 5 -7 10 -10 13 -7 3 3 14 1
24 -4 12 -7 20 -6 25 2 4 6 3 8 -3 5 -5 -3 -10 0 -10 8 0 8 5 11 11 7 6 -3 20
-8 31 -9 10 -2 23 -9 27 -16 5 -8 8 -5 8 8 0 11 4 16 8 10 4 -5 23 -11 42 -12
52 -4 60 -5 60 -15 0 -5 5 -6 10 -3 6 3 10 1 10 -5 0 -17 117 -130 135 -130
17 0 77 -38 83 -52 2 -4 10 -8 17 -8 18 0 76 -60 87 -92 6 -16 13 -28 17 -28
4 0 7 -33 6 -74 0 -41 3 -72 7 -70 4 3 8 2 8 -3 1 -15 49 -43 64 -37 9 3 14
10 11 15 -3 4 5 5 17 2 13 -3 33 -6 46 -7 12 -2 28 -8 34 -14 7 -7 22 -12 34
-12 13 0 30 -7 38 -15 11 -12 21 -13 34 -6 15 8 170 9 207 1 6 -1 27 1 48 5
25 4 43 2 53 -6 10 -8 49 -14 98 -15 45 0 91 -6 102 -11 21 -12 78 -7 110 9
16 7 28 6 45 -3 13 -7 34 -13 46 -14 12 0 32 -10 45 -21 24 -22 48 -23 151 -9
41 5 57 4 57 -4 0 -7 5 -9 10 -6 6 3 13 -1 16 -9 3 -9 11 -16 18 -16 6 0 18
-9 26 -20 8 -11 25 -20 38 -20 47 0 93 -38 119 -98 7 -18 11 -37 9 -41 -7 -11
24 -38 49 -42 33 -5 84 23 94 52 5 15 19 30 30 34 29 9 77 -16 73 -39 -2 -11
4 -20 17 -23 12 -3 21 -10 21 -15 0 -6 7 -8 15 -4 8 3 15 2 15 -3 0 -13 51 0
56 14 3 7 32 41 65 74 84 87 126 104 264 103 61 -1 121 -4 135 -7 14 -4 31 -7
38 -7 6 -1 12 -5 12 -10 0 -4 7 -8 15 -8 8 0 15 -4 15 -10 0 -5 5 -10 11 -10
13 0 79 -67 79 -80 0 -5 9 -21 21 -34 25 -29 93 -35 104 -9 5 15 -22 110 -35
123 -3 3 -6 13 -6 23 -1 9 -5 33 -8 52 -8 41 19 74 62 76 106 5 128 4 138 -3
6 -5 22 -7 34 -5 22 4 39 -6 78 -43 20 -19 42 -21 42 -4 0 9 -4 13 -8 10 -5
-3 -9 1 -9 9 0 8 2 13 4 11 2 -2 14 5 26 15 79 68 82 70 117 67 19 -1 41 -8
47 -14 7 -7 21 -11 30 -9 10 2 21 4 26 4 4 1 6 4 6 9 -6 39 29 82 68 82 16 0
23 -6 23 -20 0 -11 5 -20 11 -20 5 0 8 -4 5 -9 -3 -5 1 -12 10 -15 21 -8 20
-8 22 9 1 8 3 21 4 28 2 19 68 9 68 -11 0 -8 3 -12 7 -9 3 4 14 -6 24 -21 12
-21 25 -29 48 -30 31 -1 31 0 25 41 -6 37 -20 111 -27 144 -2 7 -6 15 -9 18
-8 9 1 96 12 109 5 7 11 23 13 35 4 27 32 61 50 61 15 0 87 61 87 73 0 8 6 16
42 58 27 31 72 32 106 3 12 -10 35 -19 51 -20 28 -2 67 -24 114 -64 18 -15 31
-16 33 -2 0 4 4 14 7 22 14 33 36 134 31 142 -3 4 -1 8 3 8 8 0 13 19 16 63 1
9 5 17 9 17 4 0 8 6 8 13 0 20 61 84 88 92 13 4 22 2 22 -4 0 -6 3 -10 8 -10
22 4 42 -2 37 -11 -3 -5 -2 -10 3 -10 8 0 22 -10 69 -49 7 -7 15 -5 23 4 7 8
19 15 27 15 8 0 11 4 8 10 -3 5 1 10 9 10 9 0 16 3 16 8 0 4 15 15 33 25 42
23 115 87 99 87 -7 0 -4 8 8 20 12 12 18 26 14 33 -5 9 -4 9 6 0 10 -9 20 -7
44 10 43 31 56 44 56 57 0 6 4 9 9 5 12 -7 63 40 53 49 -4 4 -2 6 3 5 17 -5
53 24 48 38 -4 9 0 11 11 7 9 -3 16 -1 16 6 0 6 5 8 10 5 6 -3 10 -3 10 2 0 4
16 19 35 32 19 13 37 32 40 42 4 10 11 19 16 19 15 0 39 26 32 34 -4 3 -1 6 6
6 7 0 9 5 6 10 -4 6 -3 9 2 8 5 -2 25 13 45 32 20 19 43 40 50 47 28 26 40 46
42 68 0 13 4 21 8 19 8 -5 33 37 30 49 -1 4 2 7 8 7 5 0 10 7 10 16 0 8 5 12
10 9 11 -7 31 35 23 48 -2 4 3 7 11 7 13 0 22 13 14 23 -1 1 12 17 29 34 18
18 40 49 49 70 10 21 45 65 80 98 67 64 160 207 148 226 -4 7 -3 9 4 5 6 -3
16 7 23 23 7 16 16 28 20 25 7 -4 19 22 18 39 0 5 11 18 25 31 14 12 26 27 26
33 0 6 6 13 13 16 10 4 72 114 83 147 1 3 5 15 9 28 4 12 11 22 16 22 4 0 6 9
4 20 -2 11 -1 18 4 16 4 -3 12 13 18 35 7 28 7 39 -1 39 -7 0 -7 3 -1 8 6 4
12 16 13 27 4 22 36 66 49 67 4 0 7 4 5 9 -1 5 3 9 9 9 8 0 9 4 0 13 -6 8 -8
17 -4 21 4 4 7 17 8 29 1 35 28 97 41 97 12 0 14 6 15 58 0 12 5 22 10 22 6 0
8 4 5 9 -3 5 2 24 11 42 18 35 20 41 27 99 2 19 10 51 18 70 13 31 30 109 32
150 1 8 5 21 9 28 5 6 6 12 2 12 -3 0 -1 9 5 19 7 14 6 21 -3 24 -9 4 -9 6 1
6 7 1 10 6 6 12 -3 6 0 15 7 20 10 6 10 9 2 9 -9 0 -10 7 -3 25 5 14 9 29 9
33 -1 4 0 9 1 12 5 13 10 50 14 95 2 28 8 62 14 76 8 21 7 30 -6 44 -9 10 -12
15 -6 12 7 -4 14 2 17 13 3 13 1 18 -5 13 -7 -4 -8 -1 -2 8 4 8 9 33 10 57 1
24 5 50 8 58 3 8 1 14 -5 14 -6 0 -7 6 0 17 5 10 5 26 0 40 -6 15 -5 23 2 23
8 0 8 4 1 13 -16 19 -16 21 -3 45 7 12 8 22 2 22 -6 0 -6 11 -1 29 4 16 6 32
3 35 -10 10 -11 66 -1 66 5 0 5 7 -1 17 -5 10 -5 26 0 40 5 13 5 23 0 23 -5 0
-8 7 -7 16 1 9 -1 36 -4 60 -4 26 -3 47 3 51 5 3 3 9 -4 14 -11 7 -11 9 -1 9
8 0 10 5 5 13 -4 6 -8 37 -9 68 -1 31 -4 61 -8 67 -3 6 -2 14 4 17 7 4 8 11 2
18 -5 7 -13 39 -16 72 -4 33 -8 71 -10 85 -2 14 -4 40 -4 58 -1 22 -6 31 -14
26 -6 -4 -9 -3 -6 2 7 11 -6 101 -17 128 -6 14 -5 17 3 12 9 -6 9 -1 0 18 -6
14 -15 26 -19 26 -4 0 -4 13 1 29 5 19 5 31 -2 33 -6 2 -11 18 -12 36 0 18 -4
32 -7 32 -5 0 -7 8 -11 50 -1 11 -5 20 -8 20 -3 0 -6 10 -7 22 -1 11 -6 24
-10 27 -4 3 -9 19 -10 35 -1 16 -6 32 -10 35 -4 3 -9 15 -11 26 -5 37 -26 110
-38 134 -7 14 -11 28 -8 33 3 4 0 8 -6 8 -6 0 -9 4 -6 8 3 5 -1 20 -9 35 -7
14 -11 28 -7 31 3 3 0 6 -7 6 -6 0 -11 6 -9 13 1 6 -6 26 -15 44 -9 18 -17 39
-17 48 0 8 -4 15 -10 15 -5 0 -10 14 -10 30 0 17 -5 30 -11 30 -5 0 -7 5 -4
10 3 6 1 10 -5 10 -6 0 -9 4 -6 8 3 5 -2 18 -12 28 -9 10 -17 24 -17 29 0 15
-127 270 -137 273 -4 2 -6 7 -3 12 3 5 -2 15 -10 24 -9 8 -16 17 -15 18 1 10
-26 68 -32 68 -4 0 -8 6 -8 13 0 8 -9 22 -20 32 -11 10 -20 22 -20 28 0 5 -13
26 -28 46 -15 20 -34 49 -42 66 -8 16 -23 37 -32 47 -10 10 -18 25 -18 34 0 8
-4 12 -10 9 -5 -3 -10 1 -10 9 0 8 -9 21 -20 29 -11 8 -18 16 -15 19 3 3 -1
11 -10 18 -8 7 -15 17 -15 22 0 5 -18 27 -40 49 -22 22 -40 45 -40 50 0 5 -9
14 -20 21 -11 7 -20 17 -20 21 0 5 -21 34 -47 65 -27 31 -51 61 -55 67 -54 73
-353 373 -489 489 -19 16 -59 51 -90 77 -30 27 -60 49 -65 49 -5 0 -31 20 -59
45 -27 25 -53 45 -58 45 -4 0 -13 4 -20 10 -90 74 -157 120 -292 201 -38 23
-71 46 -73 51 -2 4 -9 8 -16 8 -7 0 -21 9 -31 20 -10 11 -24 20 -32 20 -7 0
-13 3 -13 8 0 4 -19 16 -42 26 -24 10 -50 25 -60 33 -9 8 -22 16 -30 17 -7 1
-27 10 -45 19 -18 9 -39 17 -48 17 -8 0 -15 4 -15 8 0 4 -17 14 -37 21 -21 7
-92 39 -158 71 -109 52 -151 70 -158 69 -1 0 -24 10 -52 24 -48 24 -114 47
-240 83 -33 9 -71 21 -85 25 -56 19 -309 77 -360 84 -30 3 -68 9 -85 12 -16 2
-43 7 -60 9 -34 4 -85 12 -130 20 -36 7 -550 16 -556 10z"/>
</g>
</svg>
